<svg width="75" height="72" viewBox="0 0 75 72" fill="none" xmlns="http://www.w3.org/2000/svg">
<path d="M37.4975 14.5943C33.0881 14.5943 28.7777 15.8498 25.1113 18.2019C21.445 20.554 18.5874 23.8973 16.8999 27.8088C15.2124 31.7202 14.7708 36.0244 15.6309 40.1768C16.4911 44.3293 18.6143 48.1436 21.7322 51.1374C24.85 54.1312 28.8224 56.1702 33.1471 56.9963C37.4718 57.8224 41.9546 57.3987 46.0285 55.7787C50.1023 54.1586 53.5844 51.4151 56.0344 47.895C58.4844 44.3748 59.7921 40.2362 59.7924 36.0024C59.7861 30.3267 57.4351 24.8853 53.2555 20.8718C49.0758 16.8584 43.4087 14.6008 37.4975 14.5943ZM37.4975 56.0846C33.3639 56.084 29.3233 54.9066 25.8865 52.7013C22.4498 50.4959 19.7712 47.3616 18.1896 43.6946C16.608 40.0277 16.1943 35.9928 17.0009 32.1002C17.8075 28.2075 19.7981 24.6319 22.721 21.8254C25.6439 19.0189 29.3679 17.1076 33.422 16.3332C37.4762 15.5588 41.6785 15.956 45.4976 17.4746C49.3167 18.9932 52.581 21.565 54.8779 24.8648C57.1748 28.1647 58.401 32.0443 58.4016 36.0133C58.3997 41.3367 56.1961 46.4415 52.2753 50.2053C48.3546 53.9691 43.0375 56.0838 37.4933 56.0846H37.4975Z" fill="#0A004D"/>
<path d="M37.4947 9.80952C37.0066 9.80952 36.5283 9.81901 36.0388 9.84754C36.6138 10.0331 37.1199 10.3759 37.4947 10.8339C37.8716 10.3737 38.3815 10.0306 38.9606 9.84754C38.4724 9.81901 37.9829 9.80952 37.4947 9.80952ZM37.4947 61.175C37.116 61.6291 36.6113 61.971 36.0388 62.1614C36.5269 62.1899 37.0052 62.1994 37.4947 62.1994C37.9843 62.1994 38.4724 62.1899 38.9507 62.1518C38.3758 61.971 37.8693 61.6312 37.4947 61.175ZM10.2603 34.6112C10.2306 35.0704 10.2207 35.5296 10.2207 35.9997C10.2207 36.4698 10.2306 36.9181 10.2603 37.3786C10.4553 36.8351 10.8083 36.3566 11.2777 35.9997C10.8029 35.6438 10.4488 35.1606 10.2603 34.6112ZM64.4051 38.6597L64.4249 38.4111C64.4006 37.97 64.2655 37.5411 64.0312 37.1609C63.7969 36.7808 63.4703 36.4607 63.0793 36.2279C63.0369 36.205 63.0016 36.1716 62.9771 36.1313C62.9525 36.0909 62.9396 36.045 62.9396 35.9983C62.9396 35.9516 62.9525 35.9057 62.9771 35.8654C63.0016 35.8251 63.0369 35.7917 63.0793 35.7688C63.4761 35.5306 63.8062 35.2027 64.0407 34.8139C64.2753 34.4251 64.4072 33.987 64.4249 33.538L64.4051 33.3464C64.4039 33.3059 64.4111 33.2655 64.4264 33.2277C64.4417 33.1899 64.4648 33.1555 64.4942 33.1264C64.5099 33.1111 64.5286 33.0989 64.5493 33.0908C64.57 33.0826 64.5921 33.0785 64.6145 33.0788C64.0525 28.1733 62.0427 23.524 58.8218 19.678C58.7846 19.6965 58.7434 19.7063 58.7015 19.7066H58.6916C58.6524 19.7077 58.6133 19.7006 58.5771 19.6859C58.541 19.6711 58.5086 19.6489 58.4822 19.621L58.3025 19.4294C57.9621 19.1354 57.5529 18.9245 57.1096 18.8145C56.6662 18.7045 56.2018 18.6988 55.7557 18.7977C55.7088 18.8107 55.6591 18.8114 55.6118 18.7997C55.5645 18.7879 55.5214 18.7643 55.4868 18.7311C55.4518 18.6983 55.4268 18.6569 55.4146 18.6114C55.4023 18.5659 55.4034 18.518 55.4175 18.473C55.5205 18.0356 55.5117 17.5809 55.392 17.1475C55.2722 16.7141 55.0451 16.315 54.7299 15.9841L54.57 15.8592C54.5396 15.8327 54.5158 15.8001 54.5004 15.7636C54.485 15.7271 54.4783 15.6879 54.4808 15.6486C54.4811 15.6084 54.4913 15.5688 54.5105 15.5331C50.4991 12.4431 45.6521 10.5172 40.5396 9.98204C40.5298 10.0213 40.5093 10.0574 40.4802 10.0866C40.4193 10.1382 40.342 10.1684 40.2609 10.1723L40.002 10.1532C39.5436 10.1753 39.0977 10.3046 38.7032 10.5297C38.3087 10.7549 37.9774 11.0691 37.7381 11.4452C37.712 11.4862 37.6754 11.5203 37.6318 11.544C37.5883 11.5678 37.5391 11.5805 37.4891 11.5811C37.4401 11.5815 37.3919 11.5691 37.3498 11.5451C37.3077 11.5212 37.2731 11.4866 37.2499 11.4452C37.0019 11.0642 36.6604 10.7473 36.2555 10.5221C35.8505 10.2969 35.3943 10.1702 34.9266 10.1532L34.7271 10.1723C34.6421 10.1729 34.5601 10.1423 34.4979 10.0866C34.4673 10.0552 34.4497 10.0142 34.4484 9.97118C29.3359 10.5106 24.4899 12.4402 20.4803 15.5331C20.498 15.57 20.5112 15.6088 20.5199 15.6486C20.5167 15.7285 20.4812 15.804 20.4209 15.8592L20.2313 16.0222C19.9246 16.3487 19.7053 16.7419 19.5924 17.168C19.4795 17.594 19.4764 18.0401 19.5832 18.4676C19.5933 18.5135 19.5913 18.5612 19.5775 18.6062C19.5637 18.6513 19.5384 18.6923 19.504 18.7257C19.4698 18.7594 19.4267 18.7834 19.3793 18.7951C19.3319 18.8068 19.282 18.8059 19.2352 18.7923C18.7789 18.6929 18.3044 18.702 17.8526 18.8187C17.4009 18.9354 16.9857 19.1562 16.643 19.462L16.5129 19.6155C16.486 19.643 16.4536 19.6647 16.4175 19.6794C16.3815 19.6942 16.3426 19.7015 16.3035 19.7011H16.2935C16.2484 19.7017 16.2038 19.6919 16.1634 19.6726C12.9511 23.5225 10.9455 28.1703 10.3806 33.0734C10.4224 33.085 10.4627 33.101 10.5009 33.1209C10.5303 33.15 10.5534 33.1845 10.5687 33.2223C10.584 33.2601 10.5912 33.3005 10.59 33.341L10.5702 33.5801C10.5945 34.0212 10.7296 34.4502 10.9639 34.8303C11.1982 35.2105 11.5248 35.5306 11.9158 35.7633C11.9561 35.7878 11.9893 35.8217 12.0123 35.8618C12.0354 35.902 12.0474 35.9471 12.0474 35.9929C12.0474 36.0387 12.0354 36.0838 12.0123 36.1239C11.9893 36.1641 11.9561 36.198 11.9158 36.2225C11.5218 36.4591 11.1936 36.7839 10.9592 37.1692C10.7248 37.5544 10.5913 37.9885 10.5702 38.4342L10.59 38.6543C10.5903 38.6933 10.5826 38.732 10.5673 38.7681C10.552 38.8043 10.5294 38.8372 10.5009 38.8649C10.4652 38.8915 10.4243 38.9109 10.3806 38.9219C10.9545 43.8228 12.9591 48.4683 16.1634 52.3227C16.2038 52.3034 16.2484 52.2936 16.2935 52.2942C16.3345 52.2908 16.3758 52.2968 16.4139 52.3117C16.4521 52.3265 16.4859 52.3499 16.5129 52.3798L16.6827 52.5618C17.0217 52.8579 17.4309 53.0702 17.8747 53.1803C18.3184 53.2904 18.7835 53.2949 19.2295 53.1935C19.2766 53.1845 19.3253 53.1858 19.3718 53.1974C19.4184 53.2089 19.4616 53.2304 19.4983 53.2601C19.5316 53.2942 19.5562 53.3353 19.5699 53.3801C19.5837 53.4249 19.5863 53.4723 19.5776 53.5183C19.4697 53.9569 19.476 54.4143 19.596 54.85C19.7159 55.2857 19.9458 55.6864 20.2652 56.0166L20.4152 56.1416C20.4468 56.1676 20.4721 56.1999 20.4892 56.2363C20.5063 56.2727 20.5149 56.3123 20.5143 56.3522C20.5056 56.392 20.4923 56.4307 20.4746 56.4677C24.4835 59.5548 29.324 61.4838 34.4314 62.0296C34.4329 62.0075 34.4389 61.9859 34.4491 61.9661C34.4593 61.9463 34.4735 61.9286 34.4909 61.9141C34.5154 61.8816 34.549 61.8563 34.5877 61.8411C34.6265 61.826 34.6689 61.8216 34.7102 61.8285L34.9691 61.838C35.4285 61.8147 35.8752 61.685 36.2712 61.46C36.6671 61.2351 37.0005 60.9215 37.2429 60.546C37.2684 60.5073 37.3037 60.4754 37.3455 60.4533C37.3873 60.4312 37.4343 60.4196 37.482 60.4196C37.5297 60.4196 37.5767 60.4312 37.6185 60.4533C37.6603 60.4754 37.6956 60.5073 37.7211 60.546C37.9664 60.9232 38.3031 61.2377 38.7025 61.4627C39.102 61.6877 39.5522 61.8165 40.0147 61.838L40.2439 61.8285C40.2866 61.8215 40.3305 61.8258 40.3709 61.8409C40.4112 61.8559 40.4466 61.8812 40.4731 61.9141C40.4905 61.9286 40.5047 61.9463 40.5149 61.9661C40.5251 61.9859 40.5311 62.0075 40.5325 62.0296C45.6388 61.4795 50.4781 59.551 54.4893 56.4677C54.4701 56.432 54.4599 56.3924 54.4596 56.3522C54.4551 56.3128 54.4609 56.2728 54.4765 56.2361C54.492 56.1993 54.5169 56.1669 54.5488 56.1416L54.7384 55.9786C55.0452 55.649 55.2651 55.2535 55.3796 54.8254C55.4941 54.3973 55.4998 53.949 55.3963 53.5183C55.3838 53.4731 55.3836 53.4257 55.3957 53.3804C55.4079 53.3352 55.4319 53.2938 55.4656 53.2601C55.5023 53.2304 55.5456 53.2089 55.5921 53.1974C55.6387 53.1858 55.6873 53.1845 55.7345 53.1935C56.1921 53.2953 56.6688 53.2874 57.1226 53.1706C57.5763 53.0538 57.9932 52.8317 58.3365 52.5238L58.4667 52.3798C58.495 52.3516 58.5291 52.3295 58.5669 52.3148C58.6047 52.3 58.6452 52.293 58.686 52.2942C58.7278 52.2945 58.7691 52.3043 58.8063 52.3227C62.0185 48.4728 64.0241 43.8251 64.589 38.9219C64.5481 38.9126 64.5105 38.8929 64.4801 38.8649C64.4282 38.8089 64.4004 38.7361 64.4023 38.6611L64.4051 38.6597ZM37.4976 57.9009C32.9862 57.9009 28.5761 56.6164 24.825 54.2099C21.0739 51.8034 18.1503 48.3829 16.4239 44.3809C14.6975 40.379 14.2458 35.9754 15.1259 31.727C16.006 27.4786 18.1785 23.5761 21.3685 20.5132C24.5585 17.4502 28.6229 15.3643 33.0476 14.5193C37.4723 13.6742 42.0586 14.1079 46.2265 15.7656C50.3945 17.4232 53.9569 20.2304 56.4633 23.832C58.9697 27.4337 60.3075 31.668 60.3075 35.9997C60.3 41.8065 57.894 47.3734 53.6173 51.4792C49.3407 55.585 43.5425 57.8945 37.4947 57.9009H37.4976ZM18.9621 18.204C18.8922 17.6297 18.9959 17.0482 19.2606 16.5289C18.5411 17.1416 17.862 17.7968 17.2274 18.4907C17.7633 18.2339 18.3661 18.1342 18.9607 18.204H18.9621ZM18.9621 53.7981C18.3566 53.8621 17.7447 53.7594 17.1977 53.5019C17.8489 54.197 18.5414 54.8552 19.2719 55.4732C18.997 54.9594 18.8886 54.3784 18.9607 53.8049L18.9621 53.7981ZM56.033 53.7981C56.1083 54.3766 56.0008 54.9635 55.7245 55.4827C56.4483 54.8607 57.1338 54.1989 57.7776 53.5006C57.2385 53.7649 56.6302 53.8707 56.0288 53.8049L56.033 53.7981ZM64.7362 34.5963C64.5505 35.1496 64.1961 35.6366 63.7189 35.9943C64.1948 36.3552 64.5515 36.8407 64.7461 37.3922C64.7758 36.9235 64.7857 36.4643 64.7857 35.9943C64.7857 35.5242 64.7716 35.0623 64.7348 34.6018L64.7362 34.5963ZM55.7331 16.5275C56 17.0462 56.1037 17.6283 56.0316 18.2026C56.157 18.1836 56.2838 18.1741 56.4108 18.1741C56.8882 18.1787 57.3584 18.2869 57.7861 18.4907C57.1381 17.8012 56.4514 17.1463 55.7288 16.5289L55.7331 16.5275Z" fill="#0A004D"/>
<path d="M54.7454 36.0676C54.3041 36.3252 53.809 36.4863 53.2954 36.5393C52.7819 36.5924 52.2625 36.5362 51.7741 36.3747C50.4246 35.5756 49.1467 34.6699 47.9538 33.6671C47.2534 33.2208 46.4578 32.9305 45.6255 32.8174C44.7931 32.7044 43.945 32.7714 43.1431 33.0136C43.4559 32.661 43.8644 32.3986 44.3231 32.2555C45.1695 32.0952 46.0316 32.0246 46.894 32.0449C47.294 32.05 47.6799 31.9031 47.9675 31.6361C48.2551 31.3691 48.421 31.0038 48.4292 30.6198C48.2906 30.8292 48.1051 31.0064 47.8863 31.1384C47.6676 31.2705 47.4209 31.3541 47.1643 31.3833C46.2729 31.492 44.6174 30.4065 43.095 30.3535C44.5269 28.87 45.373 29.1309 47.9538 28.006C48.6172 27.6538 49.1479 27.1097 49.4706 26.4511C49.7932 25.7926 49.8913 25.053 49.7508 24.3379C49.628 24.8195 49.3964 25.2694 49.0724 25.6556C48.7484 26.0418 48.34 26.3549 47.876 26.5727C46.3325 26.924 44.7612 27.1512 43.1785 27.252C42.354 27.4125 41.5773 27.7479 40.9053 28.2338C40.2333 28.7197 39.683 29.3436 39.2945 30.0601C39.2552 29.5987 39.3502 29.1358 39.569 28.7233C40.0496 28.0353 40.6076 27.4002 41.2329 26.8295C41.5198 26.5616 41.6845 26.1956 41.6912 25.8114C41.6978 25.4273 41.5458 25.0562 41.2683 24.7794C41.3245 25.0217 41.3239 25.273 41.2664 25.5151C41.2088 25.7571 41.0959 25.9838 40.9358 26.1787C40.3967 26.8471 38.4286 27.2751 37.3009 28.2274C37.216 26.1896 38.0083 25.8078 39.0073 23.2551C39.2168 22.5561 39.1914 21.8115 38.9349 21.1271C38.6783 20.4428 38.2036 19.8534 37.5782 19.443C37.8465 19.8668 38.0142 20.3422 38.0695 20.8353C38.1248 21.3284 38.0662 21.8271 37.898 22.296C37.0657 23.5917 36.1225 24.8187 35.078 25.9641C34.6132 26.6366 34.3109 27.4004 34.1931 28.1996C34.0754 28.9988 34.1452 29.8132 34.3975 30.5832C34.0306 30.2831 33.7573 29.8914 33.6079 29.4515C33.4401 28.6385 33.3665 27.8102 33.3886 26.9816C33.3939 26.5973 33.2407 26.2266 32.9623 25.9505C32.684 25.6743 32.3031 25.5151 31.903 25.5076C32.1211 25.6407 32.3057 25.8187 32.4432 26.0288C32.5808 26.2388 32.6678 26.4757 32.6981 26.7221C32.8085 27.5549 31.6129 29.086 31.4969 30.5125C30.0947 29.2069 30.3197 28.3714 29.1806 25.9641C28.8139 25.3271 28.2472 24.8175 27.5613 24.5077C26.8754 24.1979 26.1052 24.1038 25.3604 24.2387C25.862 24.3566 26.3306 24.579 26.7328 24.89C27.135 25.2011 27.4611 25.5933 27.6879 26.0388C28.0537 27.5208 28.2904 29.0295 28.3954 30.5492C28.5621 31.3411 28.9113 32.0872 29.4174 32.7327C29.9235 33.3782 30.5735 33.9068 31.32 34.2798C30.8393 34.3166 30.3574 34.2249 29.9277 34.0149C29.2112 33.5534 28.5497 33.0176 27.9553 32.4172C27.6763 32.1418 27.2951 31.9836 26.8951 31.9772C26.495 31.9708 26.1085 32.1168 25.8202 32.3832C26.0726 32.3292 26.3343 32.3299 26.5864 32.3851C26.8385 32.4403 27.0746 32.5488 27.2776 32.7025C27.9921 33.2337 28.1732 35.084 29.2231 36.1491L29.2726 36.1967C29.0915 36.1967 28.9104 36.1967 28.7307 36.1872C27.1743 36.0921 26.5786 35.4019 24.2327 34.5569C23.5047 34.3558 22.7292 34.3801 22.0164 34.6264C21.3036 34.8728 20.6899 35.3286 20.2624 35.9291C20.7038 35.6715 21.1989 35.5104 21.7124 35.4573C22.226 35.4043 22.7454 35.4605 23.2337 35.622C24.5833 36.4211 25.8611 37.3268 27.054 38.3296C27.7545 38.7759 28.55 39.0662 29.3824 39.1793C30.2147 39.2923 31.0628 39.2253 31.8647 38.9831C31.5522 39.3359 31.1436 39.5984 30.6847 39.7412C29.8385 39.9024 28.9762 39.9731 28.1138 39.9517C27.7136 39.9466 27.3275 40.0938 27.0399 40.361C26.7522 40.6283 26.5864 40.994 26.5786 41.3782C26.7171 41.1687 26.9025 40.9914 27.1213 40.8594C27.3401 40.7273 27.5869 40.6437 27.8436 40.6147C28.7364 40.506 30.1301 41.8524 31.6483 41.904C31.5789 41.9678 31.5068 42.0317 31.4374 42.0928C30.2616 43.0859 29.3363 42.9963 27.0512 43.9948C26.388 44.3471 25.8573 44.8912 25.5347 45.5497C25.2121 46.2083 25.114 46.9477 25.2542 47.6629C25.377 47.1812 25.6086 46.7314 25.9326 46.3452C26.2566 45.959 26.665 45.6459 27.129 45.4281C28.6725 45.0768 30.2438 44.8496 31.8266 44.7488C32.6512 44.5887 33.428 44.2533 34.1 43.7674C34.7721 43.2815 35.3224 42.6573 35.7105 41.9406C35.7498 42.4021 35.6548 42.8649 35.436 43.2775C34.9554 43.9654 34.3974 44.6006 33.7721 45.1713C33.4852 45.4392 33.3205 45.8052 33.3138 46.1893C33.3072 46.5735 33.4592 46.9445 33.7367 47.2214C33.6805 46.979 33.6811 46.7277 33.7387 46.4857C33.7962 46.2437 33.9091 46.017 34.0692 45.8221C34.6069 45.1536 36.5807 44.848 37.7084 43.8997C37.7551 45.8248 36.9754 46.2473 35.9991 48.7456C35.7894 49.4446 35.8147 50.1893 36.0712 50.8737C36.3278 51.5581 36.8027 52.1474 37.4282 52.5577C37.16 52.1339 36.9922 51.6586 36.9369 51.1655C36.8817 50.6724 36.9402 50.1737 37.1085 49.7048C37.9405 48.4088 38.8837 47.1819 39.9284 46.0367C40.393 45.3641 40.6952 44.6003 40.813 43.8011C40.9307 43.0019 40.861 42.1876 40.609 41.4176C40.9762 41.718 41.2495 42.1101 41.3985 42.5506C41.5664 43.3631 41.64 44.1911 41.6178 45.0191C41.6125 45.4034 41.7657 45.7741 42.0441 46.0503C42.3224 46.3265 42.7033 46.4857 43.1035 46.4932C42.8853 46.3601 42.7008 46.1821 42.5632 45.972C42.4257 45.7619 42.3386 45.525 42.3083 45.2786C42.2007 44.4635 43.3256 42.8889 43.4968 41.4842C44.9117 42.7938 44.6797 43.628 45.8201 46.0381C46.1869 46.675 46.7535 47.1846 47.4394 47.4944C48.1253 47.8042 48.8955 47.8983 49.6404 47.7634C49.1387 47.6455 48.6702 47.4231 48.268 47.1121C47.8658 46.801 47.5397 46.4088 47.3128 45.9633C46.9471 44.4808 46.7105 42.9717 46.6054 41.4516C46.4386 40.6598 46.0894 39.9139 45.5833 39.2686C45.0773 38.6233 44.4272 38.095 43.6807 37.7224C44.1613 37.6846 44.6434 37.7758 45.073 37.9859C45.7896 38.4474 46.451 38.9832 47.0454 39.5836C47.3244 39.859 47.7056 40.0172 48.1057 40.0235C48.5058 40.0299 48.8922 39.8839 49.1806 39.6175C48.9282 39.6713 48.6665 39.6706 48.4145 39.6154C48.1624 39.5602 47.9263 39.4519 47.7232 39.2983C47.0087 38.7671 46.8275 37.0444 45.7777 35.9793C45.7171 35.9192 45.6533 35.8621 45.5866 35.8082C45.8143 35.7961 46.0424 35.7961 46.2701 35.8082C47.8265 35.9033 48.4221 36.5947 50.7681 37.4384C51.4961 37.6398 52.2717 37.6156 52.9845 37.3692C53.6973 37.1228 54.311 36.6669 54.7384 36.0663L54.7454 36.0676ZM37.4947 41.366C36.3886 41.3657 35.3073 41.0505 34.3877 40.4602C33.4681 39.87 32.7514 39.0312 32.3283 38.0498C31.9052 37.0685 31.7946 35.9887 32.0106 34.9471C32.2266 33.9054 32.7594 32.9486 33.5417 32.1977C34.3239 31.4468 35.3206 30.9354 36.4055 30.7283C37.4904 30.5212 38.6149 30.6277 39.6369 31.0342C40.6588 31.4407 41.5323 32.129 42.1468 33.0122C42.7613 33.8953 43.0893 34.9335 43.0893 35.9956C43.0901 36.7015 42.9459 37.4005 42.665 38.0527C42.3842 38.705 41.9722 39.2978 41.4526 39.797C40.933 40.2963 40.316 40.6923 39.6369 40.9625C38.9578 41.2326 38.2298 41.3716 37.4947 41.3714V41.366Z" fill="#5B5776"/>
<path d="M37.4961 38.1924C38.7566 38.1924 39.7784 37.2113 39.7784 36.0011C39.7784 34.7908 38.7566 33.8097 37.4961 33.8097C36.2357 33.8097 35.2139 34.7908 35.2139 36.0011C35.2139 37.2113 36.2357 38.1924 37.4961 38.1924Z" fill="#5B5776"/>
<path d="M39.9383 9.62743C39.4677 9.66075 39.0089 9.78476 38.5893 9.99203C38.1698 10.1993 37.798 10.4856 37.4961 10.8338C37.1966 10.4854 36.8267 10.1988 36.4086 9.99149C35.9906 9.78415 35.5331 9.66031 35.0639 9.62743C35.1453 9.39315 35.2398 9.16324 35.3469 8.93866C35.9855 7.62418 36.3025 6.18684 36.2736 4.73663C36.2738 4.67446 36.253 4.61392 36.2142 4.56412C35.7744 4.00561 35.5427 3.32147 35.5563 2.6214C35.5561 2.18281 35.6405 1.74799 35.8053 1.33892C35.8176 1.32587 35.8247 1.30899 35.8251 1.29137C35.9079 0.923232 36.1204 0.593754 36.4268 0.358526C36.7331 0.123297 37.1146 -0.00328637 37.5068 6.48713e-05C37.899 0.00341611 38.2781 0.136508 38.58 0.376934C38.882 0.61736 39.0883 0.9504 39.1643 1.31989C39.1699 1.32485 39.1735 1.33163 39.1742 1.33892C39.3437 1.74669 39.4283 2.18239 39.4233 2.6214C39.4397 3.32035 39.2115 4.00439 38.7752 4.56412C38.7364 4.61392 38.7156 4.67446 38.7158 4.73663C38.6869 6.18684 39.0039 7.62418 39.6426 8.93866C39.7574 9.16152 39.8562 9.39164 39.9383 9.62743Z" fill="#0A004D"/>
<path d="M64.3626 12.2169C64.3428 12.2834 64.323 12.3527 64.2933 12.456C64.2834 12.456 64.2537 12.5415 64.2537 12.5415C64.2484 12.5641 64.2418 12.5863 64.2339 12.6081C64.224 12.6176 64.224 12.6271 64.2141 12.6367C64.0381 13.043 63.781 13.4122 63.4571 13.7235C62.9491 14.2245 62.2832 14.5507 61.5625 14.6514C61.4966 14.6608 61.4345 14.6871 61.3828 14.7275C60.3007 15.7363 59.4693 16.9664 58.9506 18.3263C58.8648 18.5625 58.7617 18.7927 58.6421 19.0151C58.0163 18.5047 57.2299 18.2114 56.4094 18.1823C56.2824 18.1823 56.1556 18.1918 56.0302 18.2108C56.0741 17.7623 56.0234 17.31 55.8812 16.8807C55.739 16.4515 55.5081 16.0541 55.2024 15.7124C55.4285 15.5935 55.6653 15.4944 55.9099 15.4162C57.3285 14.918 58.6103 14.1161 59.658 13.0714C59.7085 13.0301 59.7404 12.9717 59.7472 12.9084C59.8521 12.2164 60.1918 11.577 60.7136 11.0893C61.0343 10.7812 61.4132 10.5345 61.8299 10.3624C61.8477 10.355 61.8643 10.3454 61.8795 10.3339C62.2177 10.1652 62.6 10.0953 62.9791 10.1327C63.3583 10.1701 63.7177 10.3132 64.0132 10.5445C64.2148 10.7716 64.3528 11.0445 64.4139 11.3371C64.4751 11.6298 64.4574 11.9326 64.3626 12.2169Z" fill="#0A004D"/>
<path d="M75 35.9997C74.9626 36.3671 74.8131 36.7157 74.5702 37.0019C74.3273 37.288 74.0018 37.499 73.6346 37.6082C73.6247 37.6082 73.6049 37.6177 73.595 37.6177C73.047 37.8234 72.4546 37.896 71.8704 37.8292C71.2862 37.7623 70.7282 37.5581 70.2459 37.2346C70.2203 37.2128 70.1901 37.1964 70.1575 37.1865C70.1248 37.1767 70.0903 37.1736 70.0563 37.1776C68.5491 37.1494 67.0552 37.4538 65.6898 38.0674C65.4574 38.1735 65.2177 38.2643 64.9725 38.3391C64.9389 37.8871 64.8102 37.4462 64.5943 37.0432C64.3783 36.6402 64.0796 36.2833 63.716 35.9943C64.078 35.7059 64.3758 35.3505 64.5916 34.9493C64.8075 34.5481 64.937 34.1092 64.9725 33.6589C65.2171 33.7355 65.4567 33.8262 65.6898 33.9306C67.0589 34.5438 68.5558 34.8482 70.0662 34.8205C70.1301 34.8162 70.1919 34.7966 70.2459 34.7634C70.7283 34.4404 71.2858 34.2356 71.8696 34.1672C72.4534 34.0987 73.0458 34.1687 73.595 34.3708C73.6148 34.3803 73.6247 34.3803 73.6445 34.3898C74.0117 34.498 74.337 34.7091 74.5785 34.9959C74.82 35.2827 74.9667 35.6322 75 35.9997Z" fill="#0A004D"/>
<path d="M64.0146 61.4535C63.7888 61.6462 63.5153 61.78 63.2202 61.8421C62.9251 61.9042 62.6184 61.8925 62.3294 61.8081L62.2502 61.7891C62.1907 61.7796 62.1398 61.7606 62.0804 61.7511L61.9205 61.694L61.8115 61.9426L61.8314 61.656C61.4107 61.4857 61.0308 61.2347 60.715 60.9183C60.1882 60.4326 59.8443 59.7928 59.7373 59.0992C59.7368 59.0682 59.7296 59.0376 59.7159 59.0095C59.7022 58.9814 59.6825 58.9564 59.658 58.9362C58.6099 57.8944 57.3273 57.0969 55.9085 56.6049C55.6663 56.5208 55.43 56.4219 55.201 56.3087C55.508 55.9678 55.7396 55.5705 55.8819 55.1411C56.0242 54.7116 56.0741 54.2589 56.0288 53.8103C56.4989 53.8509 56.9727 53.7995 57.4216 53.6594C57.8705 53.5194 58.2852 53.2934 58.6407 52.9952C58.7511 53.1962 58.8402 53.4259 58.9492 53.684C59.4631 55.0462 60.2951 56.2772 61.3814 57.2828C61.4298 57.3297 61.493 57.3598 61.5611 57.3684C62.2795 57.4673 62.9429 57.7938 63.4458 58.2963C63.7669 58.6063 64.0272 58.9694 64.2141 59.3682C64.2141 59.3872 64.224 59.3967 64.2339 59.4157C64.4121 59.7379 64.4864 60.1038 64.4473 60.4667C64.4083 60.8296 64.2576 61.1731 64.0146 61.4535Z" fill="#0A004D"/>
<path d="M39.6383 63.0702C39.0042 64.3828 38.6874 65.816 38.7115 67.2627C38.7101 67.2945 38.7155 67.3262 38.7274 67.3559C38.7394 67.3856 38.7576 67.4126 38.7809 67.4352C39.2115 68.0014 39.4389 68.6865 39.4289 69.3875C39.4283 69.8229 39.3439 70.2545 39.1799 70.6605C39.17 70.6795 39.17 70.689 39.1601 70.708C39.0498 71.0574 38.8332 71.367 38.5382 71.5972C38.2432 71.8275 37.8833 71.9677 37.5046 72C37.1135 71.9685 36.7416 71.8235 36.4383 71.5842C36.135 71.345 35.9147 71.0228 35.8067 70.6605C35.6429 70.2545 35.5584 69.8229 35.5577 69.3875C35.5477 68.6865 35.7751 68.0014 36.2057 67.4352C36.229 67.4126 36.2472 67.3856 36.2592 67.3559C36.2711 67.3262 36.2765 67.2945 36.2751 67.2627C36.3026 65.8147 35.9821 64.38 35.3384 63.0702C35.2308 62.8459 35.1364 62.6159 35.0554 62.3815C35.5241 62.3461 35.9806 62.2211 36.3983 62.0139C36.816 61.8068 37.1863 61.5216 37.4876 61.1751C37.7881 61.5224 38.1583 61.8082 38.5761 62.0155C38.994 62.2227 39.4509 62.3472 39.9199 62.3815C39.8389 62.6157 39.7449 62.8456 39.6383 63.0702Z" fill="#0A004D"/>
<path d="M19.7997 56.3033C19.5662 56.4141 19.3268 56.513 19.0824 56.5994C17.6637 57.0929 16.3815 57.8918 15.3342 58.9348C15.3095 58.9569 15.2898 58.9836 15.2761 59.0133C15.2625 59.0429 15.2553 59.0749 15.255 59.1073C15.1481 59.798 14.8045 60.4347 14.2787 60.9169C13.9619 61.228 13.5864 61.4783 13.1722 61.6546C13.1524 61.6641 13.1326 61.6641 13.1227 61.6737C12.7852 61.845 12.4024 61.9164 12.0226 61.8789C11.6428 61.8414 11.2832 61.6967 10.989 61.4631C10.7658 61.2331 10.6228 60.942 10.5801 60.6303C10.5702 60.5732 10.5702 60.5148 10.5603 60.4007C10.5573 60.2984 10.5639 60.1961 10.5801 60.095L10.2971 60.0665L10.5801 60.0189L10.5999 59.883C10.6098 59.8355 10.6296 59.788 10.6395 59.7391L10.6692 59.6236C10.8446 59.1205 11.1418 58.6647 11.5366 58.2936C12.0406 57.7874 12.7085 57.4602 13.4312 57.3656C13.4971 57.3592 13.5579 57.3285 13.6009 57.2801C14.6908 56.2774 15.5234 55.0454 16.0332 53.6813C16.1436 53.4232 16.2327 53.2031 16.3417 53.002C16.7003 53.2949 17.1157 53.5167 17.5639 53.6547C18.0122 53.7927 18.4845 53.8442 18.9536 53.8062C18.9113 54.2558 18.9645 54.7089 19.1099 55.1381C19.2554 55.5673 19.4901 55.9637 19.7997 56.3033Z" fill="#0A004D"/>
<path d="M11.2748 35.9997C10.9138 36.2881 10.6172 36.6437 10.403 37.045C10.1887 37.4464 10.0613 37.8852 10.0283 38.3351C9.78134 38.2648 9.54129 38.1739 9.31092 38.0633C7.9419 37.4502 6.44494 37.1458 4.93457 37.1735C4.86963 37.1721 4.80618 37.1923 4.75488 37.2305C4.27142 37.5516 3.71356 37.7544 3.12984 37.8212C2.54613 37.8879 1.95424 37.8167 1.40575 37.6137C1.38594 37.6137 1.37606 37.6041 1.35625 37.6041C0.971762 37.526 0.627028 37.3231 0.380034 37.0295C0.133041 36.736 -0.00115477 36.3698 7.48666e-06 35.9924C0.00116975 35.6151 0.137628 35.2496 0.386425 34.9575C0.635222 34.6654 0.981175 34.4645 1.36613 34.3885C1.37151 34.3891 1.37698 34.3885 1.38211 34.3869C1.38725 34.3853 1.39195 34.3825 1.39586 34.3789C1.94688 34.1763 2.54112 34.1062 3.12684 34.1746C3.71256 34.2431 4.27198 34.448 4.7563 34.7716C4.78085 34.792 4.80936 34.8075 4.8402 34.8173C4.87104 34.8271 4.9036 34.831 4.93599 34.8286C6.44589 34.8516 7.94174 34.5474 9.31232 33.9388C9.54478 33.8327 9.78445 33.742 10.0297 33.6671C10.0617 34.1166 10.1886 34.5552 10.4026 34.9562C10.6167 35.3572 10.9134 35.7122 11.2748 35.9997Z" fill="#0A004D"/>
<path d="M18.9621 18.2053C18.4926 18.1624 18.0189 18.2112 17.5695 18.3487C17.1201 18.4862 16.7044 18.7097 16.3473 19.0056C16.2319 18.7814 16.1289 18.5514 16.0389 18.3168C15.5267 16.9537 14.6944 15.7223 13.6066 14.718C13.5627 14.6721 13.5017 14.6448 13.4368 14.6419C12.7153 14.5374 12.0496 14.208 11.5423 13.7045C11.2192 13.3982 10.962 13.034 10.7853 12.6326C10.7754 12.6231 10.7655 12.6041 10.7556 12.5946C10.5795 12.2699 10.5065 11.9027 10.5455 11.5386C10.5844 11.1745 10.7337 10.8293 10.9749 10.5458C11.2123 10.3492 11.4986 10.215 11.8061 10.1561C12.1136 10.0973 12.4316 10.116 12.7294 10.2103C12.811 10.2254 12.8911 10.2477 12.9685 10.2768C13.0036 10.2837 13.0372 10.2966 13.0676 10.3149C13.0973 10.3244 13.127 10.3339 13.1666 10.3434C13.5819 10.5229 13.96 10.7728 14.283 11.0811C14.8048 11.5689 15.1444 12.2083 15.2493 12.9002C15.2583 12.9656 15.2897 13.0263 15.3385 13.0728C16.3839 14.1135 17.6622 14.9121 19.0767 15.4081C19.3193 15.4874 19.5557 15.5832 19.7842 15.6948C19.4814 16.0405 19.2529 16.4403 19.1118 16.8712C18.9707 17.3021 18.9199 17.7555 18.9621 18.2053Z" fill="#0A004D"/>
</svg>
